ISO-10303-21;
HEADER;
FILE_DESCRIPTION(('FreeCAD Model'),'2;1');
FILE_NAME('Open CASCADE Shape Model','2026-06-17T11:31:22',('FreeCAD'),(
    'FreeCAD'),'Open CASCADE STEP processor 7.8','FreeCAD','Unknown');
FILE_SCHEMA(('AUTOMOTIVE_DESIGN { 1 0 10303 214 1 1 1 1 }'));
ENDSEC;
DATA;
#1 = APPLICATION_PROTOCOL_DEFINITION('international standard',
  'automotive_design',2000,#2);
#2 = APPLICATION_CONTEXT(
  'core data for automotive mechanical design processes');
#3 = SHAPE_DEFINITION_REPRESENTATION(#4,#10);
#4 = PRODUCT_DEFINITION_SHAPE('','',#5);
#5 = PRODUCT_DEFINITION('design','',#6,#9);
#6 = PRODUCT_DEFINITION_FORMATION('','',#7);
#7 = PRODUCT('Open CASCADE STEP translator 7.8 1',
  'Open CASCADE STEP translator 7.8 1','',(#8));
#8 = PRODUCT_CONTEXT('',#2,'mechanical');
#9 = PRODUCT_DEFINITION_CONTEXT('part definition',#2,'design');
#10 = ADVANCED_BREP_SHAPE_REPRESENTATION('',(#11,#15),#1228);
#11 = AXIS2_PLACEMENT_3D('',#12,#13,#14);
#12 = CARTESIAN_POINT('',(0.,0.,0.));
#13 = DIRECTION('',(0.,0.,1.));
#14 = DIRECTION('',(1.,0.,-0.));
#15 = MANIFOLD_SOLID_BREP('',#16);
#16 = CLOSED_SHELL('',(#17,#152,#183,#271,#302,#327,#351,#382,#407,#431,
    #462,#490,#510,#552,#607,#620,#638,#656,#665,#683,#701,#726,#758,
    #827,#847,#859,#871,#891,#1091,#1116,#1142,#1167,#1192,#1201,#1210,
    #1219));
#17 = ADVANCED_FACE('',(#18),#147,.T.);
#18 = FACE_BOUND('',#19,.T.);
#19 = EDGE_LOOP('',(#20,#30,#39,#47,#54,#55,#64,#72,#81,#89,#98,#106,
    #115,#123,#132,#140));
#20 = ORIENTED_EDGE('',*,*,#21,.T.);
#21 = EDGE_CURVE('',#22,#24,#26,.T.);
#22 = VERTEX_POINT('',#23);
#23 = CARTESIAN_POINT('',(9.378533815245,-1.27,0.));
#24 = VERTEX_POINT('',#25);
#25 = CARTESIAN_POINT('',(9.378533815245,-1.27,5.08));
#26 = LINE('',#27,#28);
#27 = CARTESIAN_POINT('',(9.378533815245,-1.27,0.));
#28 = VECTOR('',#29,1.);
#29 = DIRECTION('',(0.,0.,1.));
#30 = ORIENTED_EDGE('',*,*,#31,.T.);
#31 = EDGE_CURVE('',#24,#32,#34,.T.);
#32 = VERTEX_POINT('',#33);
#33 = CARTESIAN_POINT('',(9.4535,-2.644012439359E-15,5.08));
#34 = CIRCLE('',#35,10.795);
#35 = AXIS2_PLACEMENT_3D('',#36,#37,#38);
#36 = CARTESIAN_POINT('',(-1.3415,0.,5.08));
#37 = DIRECTION('',(0.,0.,1.));
#38 = DIRECTION('',(1.,0.,-0.));
#39 = ORIENTED_EDGE('',*,*,#40,.T.);
#40 = EDGE_CURVE('',#32,#41,#43,.T.);
#41 = VERTEX_POINT('',#42);
#42 = CARTESIAN_POINT('',(9.4535,-2.644012439359E-15,11.43));
#43 = LINE('',#44,#45);
#44 = CARTESIAN_POINT('',(9.4535,-2.644012439359E-15,0.));
#45 = VECTOR('',#46,1.);
#46 = DIRECTION('',(0.,0.,1.));
#47 = ORIENTED_EDGE('',*,*,#48,.F.);
#48 = EDGE_CURVE('',#41,#41,#49,.T.);
#49 = CIRCLE('',#50,10.795);
#50 = AXIS2_PLACEMENT_3D('',#51,#52,#53);
#51 = CARTESIAN_POINT('',(-1.3415,0.,11.43));
#52 = DIRECTION('',(0.,0.,1.));
#53 = DIRECTION('',(1.,0.,-0.));
#54 = ORIENTED_EDGE('',*,*,#40,.F.);
#55 = ORIENTED_EDGE('',*,*,#56,.T.);
#56 = EDGE_CURVE('',#32,#57,#59,.T.);
#57 = VERTEX_POINT('',#58);
#58 = CARTESIAN_POINT('',(9.378533815245,1.27,5.08));
#59 = CIRCLE('',#60,10.795);
#60 = AXIS2_PLACEMENT_3D('',#61,#62,#63);
#61 = CARTESIAN_POINT('',(-1.3415,0.,5.08));
#62 = DIRECTION('',(0.,0.,1.));
#63 = DIRECTION('',(1.,0.,-0.));
#64 = ORIENTED_EDGE('',*,*,#65,.F.);
#65 = EDGE_CURVE('',#66,#57,#68,.T.);
#66 = VERTEX_POINT('',#67);
#67 = CARTESIAN_POINT('',(9.378533815245,1.27,0.));
#68 = LINE('',#69,#70);
#69 = CARTESIAN_POINT('',(9.378533815245,1.27,0.));
#70 = VECTOR('',#71,1.);
#71 = DIRECTION('',(0.,0.,1.));
#72 = ORIENTED_EDGE('',*,*,#73,.T.);
#73 = EDGE_CURVE('',#66,#74,#76,.T.);
#74 = VERTEX_POINT('',#75);
#75 = CARTESIAN_POINT('',(-5.601664644816,9.918821613431,0.));
#76 = CIRCLE('',#77,10.795);
#77 = AXIS2_PLACEMENT_3D('',#78,#79,#80);
#78 = CARTESIAN_POINT('',(-1.3415,0.,0.));
#79 = DIRECTION('',(0.,0.,1.));
#80 = DIRECTION('',(1.,0.,-0.));
#81 = ORIENTED_EDGE('',*,*,#82,.T.);
#82 = EDGE_CURVE('',#74,#83,#85,.T.);
#83 = VERTEX_POINT('',#84);
#84 = CARTESIAN_POINT('',(-5.601664644816,9.918821613431,5.08));
#85 = LINE('',#86,#87);
#86 = CARTESIAN_POINT('',(-5.601664644816,9.918821613431,0.));
#87 = VECTOR('',#88,1.);
#88 = DIRECTION('',(0.,0.,1.));
#89 = ORIENTED_EDGE('',*,*,#90,.T.);
#90 = EDGE_CURVE('',#83,#91,#93,.T.);
#91 = VERTEX_POINT('',#92);
#92 = CARTESIAN_POINT('',(-7.801369170429,8.648821613431,5.08));
#93 = CIRCLE('',#94,10.795);
#94 = AXIS2_PLACEMENT_3D('',#95,#96,#97);
#95 = CARTESIAN_POINT('',(-1.3415,0.,5.08));
#96 = DIRECTION('',(0.,0.,1.));
#97 = DIRECTION('',(1.,0.,-0.));
#98 = ORIENTED_EDGE('',*,*,#99,.F.);
#99 = EDGE_CURVE('',#100,#91,#102,.T.);
#100 = VERTEX_POINT('',#101);
#101 = CARTESIAN_POINT('',(-7.801369170429,8.64882161343,0.));
#102 = LINE('',#103,#104);
#103 = CARTESIAN_POINT('',(-7.801369170429,8.648821613431,0.));
#104 = VECTOR('',#105,1.);
#105 = DIRECTION('',(0.,0.,1.));
#106 = ORIENTED_EDGE('',*,*,#107,.T.);
#107 = EDGE_CURVE('',#100,#108,#110,.T.);
#108 = VERTEX_POINT('',#109);
#109 = CARTESIAN_POINT('',(-7.801369170429,-8.64882161343,0.));
#110 = CIRCLE('',#111,10.795);
#111 = AXIS2_PLACEMENT_3D('',#112,#113,#114);
#112 = CARTESIAN_POINT('',(-1.3415,0.,0.));
#113 = DIRECTION('',(0.,0.,1.));
#114 = DIRECTION('',(1.,0.,-0.));
#115 = ORIENTED_EDGE('',*,*,#116,.T.);
#116 = EDGE_CURVE('',#108,#117,#119,.T.);
#117 = VERTEX_POINT('',#118);
#118 = CARTESIAN_POINT('',(-7.801369170429,-8.648821613431,5.08));
#119 = LINE('',#120,#121);
#120 = CARTESIAN_POINT('',(-7.801369170429,-8.648821613431,0.));
#121 = VECTOR('',#122,1.);
#122 = DIRECTION('',(0.,0.,1.));
#123 = ORIENTED_EDGE('',*,*,#124,.T.);
#124 = EDGE_CURVE('',#117,#125,#127,.T.);
#125 = VERTEX_POINT('',#126);
#126 = CARTESIAN_POINT('',(-5.601664644816,-9.918821613431,5.08));
#127 = CIRCLE('',#128,10.795);
#128 = AXIS2_PLACEMENT_3D('',#129,#130,#131);
#129 = CARTESIAN_POINT('',(-1.3415,0.,5.08));
#130 = DIRECTION('',(0.,0.,1.));
#131 = DIRECTION('',(1.,0.,-0.));
#132 = ORIENTED_EDGE('',*,*,#133,.F.);
#133 = EDGE_CURVE('',#134,#125,#136,.T.);
#134 = VERTEX_POINT('',#135);
#135 = CARTESIAN_POINT('',(-5.601664644816,-9.918821613431,0.));
#136 = LINE('',#137,#138);
#137 = CARTESIAN_POINT('',(-5.601664644816,-9.918821613431,0.));
#138 = VECTOR('',#139,1.);
#139 = DIRECTION('',(0.,0.,1.));
#140 = ORIENTED_EDGE('',*,*,#141,.T.);
#141 = EDGE_CURVE('',#134,#22,#142,.T.);
#142 = CIRCLE('',#143,10.795);
#143 = AXIS2_PLACEMENT_3D('',#144,#145,#146);
#144 = CARTESIAN_POINT('',(-1.3415,0.,0.));
#145 = DIRECTION('',(0.,0.,1.));
#146 = DIRECTION('',(1.,0.,-0.));
#147 = CYLINDRICAL_SURFACE('',#148,10.795);
#148 = AXIS2_PLACEMENT_3D('',#149,#150,#151);
#149 = CARTESIAN_POINT('',(-1.3415,0.,0.));
#150 = DIRECTION('',(0.,0.,1.));
#151 = DIRECTION('',(1.,0.,-0.));
#152 = ADVANCED_FACE('',(#153),#178,.F.);
#153 = FACE_BOUND('',#154,.F.);
#154 = EDGE_LOOP('',(#155,#163,#164,#172));
#155 = ORIENTED_EDGE('',*,*,#156,.F.);
#156 = EDGE_CURVE('',#22,#157,#159,.T.);
#157 = VERTEX_POINT('',#158);
#158 = CARTESIAN_POINT('',(29.429803291379,-1.27,0.));
#159 = LINE('',#160,#161);
#160 = CARTESIAN_POINT('',(8.9535,-1.27,0.));
#161 = VECTOR('',#162,1.);
#162 = DIRECTION('',(1.,0.,0.));
#163 = ORIENTED_EDGE('',*,*,#21,.T.);
#164 = ORIENTED_EDGE('',*,*,#165,.T.);
#165 = EDGE_CURVE('',#24,#166,#168,.T.);
#166 = VERTEX_POINT('',#167);
#167 = CARTESIAN_POINT('',(29.429803291378,-1.27,5.08));
#168 = LINE('',#169,#170);
#169 = CARTESIAN_POINT('',(8.9535,-1.27,5.08));
#170 = VECTOR('',#171,1.);
#171 = DIRECTION('',(1.,0.,0.));
#172 = ORIENTED_EDGE('',*,*,#173,.F.);
#173 = EDGE_CURVE('',#157,#166,#174,.T.);
#174 = LINE('',#175,#176);
#175 = CARTESIAN_POINT('',(29.429803291378,-1.27,0.));
#176 = VECTOR('',#177,1.);
#177 = DIRECTION('',(0.,0.,1.));
#178 = PLANE('',#179);
#179 = AXIS2_PLACEMENT_3D('',#180,#181,#182);
#180 = CARTESIAN_POINT('',(8.9535,-1.27,0.));
#181 = DIRECTION('',(0.,1.,0.));
#182 = DIRECTION('',(0.,0.,1.));
#183 = ADVANCED_FACE('',(#184,#255),#266,.F.);
#184 = FACE_BOUND('',#185,.F.);
#185 = EDGE_LOOP('',(#186,#194,#202,#208,#209,#217,#225,#231,#232,#240,
    #248,#254));
#186 = ORIENTED_EDGE('',*,*,#187,.F.);
#187 = EDGE_CURVE('',#188,#22,#190,.T.);
#188 = VERTEX_POINT('',#189);
#189 = CARTESIAN_POINT('',(8.9535,-1.27,0.));
#190 = LINE('',#191,#192);
#191 = CARTESIAN_POINT('',(8.9535,-1.27,0.));
#192 = VECTOR('',#193,1.);
#193 = DIRECTION('',(1.,0.,0.));
#194 = ORIENTED_EDGE('',*,*,#195,.T.);
#195 = EDGE_CURVE('',#188,#196,#198,.T.);
#196 = VERTEX_POINT('',#197);
#197 = CARTESIAN_POINT('',(8.9535,1.27,0.));
#198 = LINE('',#199,#200);
#199 = CARTESIAN_POINT('',(8.9535,-1.27,0.));
#200 = VECTOR('',#201,1.);
#201 = DIRECTION('',(0.,1.,0.));
#202 = ORIENTED_EDGE('',*,*,#203,.T.);
#203 = EDGE_CURVE('',#196,#66,#204,.T.);
#204 = LINE('',#205,#206);
#205 = CARTESIAN_POINT('',(8.9535,1.27,0.));
#206 = VECTOR('',#207,1.);
#207 = DIRECTION('',(1.,0.,0.));
#208 = ORIENTED_EDGE('',*,*,#73,.T.);
#209 = ORIENTED_EDGE('',*,*,#210,.F.);
#210 = EDGE_CURVE('',#211,#74,#213,.T.);
#211 = VERTEX_POINT('',#212);
#212 = CARTESIAN_POINT('',(-5.389147737194,9.550731531961,0.));
#213 = LINE('',#214,#215);
#214 = CARTESIAN_POINT('',(-5.389147737194,9.550731531961,0.));
#215 = VECTOR('',#216,1.);
#216 = DIRECTION('',(-0.5,0.866025403784,0.));
#217 = ORIENTED_EDGE('',*,*,#218,.T.);
#218 = EDGE_CURVE('',#211,#219,#221,.T.);
#219 = VERTEX_POINT('',#220);
#220 = CARTESIAN_POINT('',(-7.588852262806,8.280731531961,0.));
#221 = LINE('',#222,#223);
#222 = CARTESIAN_POINT('',(-5.389147737194,9.550731531961,0.));
#223 = VECTOR('',#224,1.);
#224 = DIRECTION('',(-0.866025403784,-0.5,0.));
#225 = ORIENTED_EDGE('',*,*,#226,.T.);
#226 = EDGE_CURVE('',#219,#100,#227,.T.);
#227 = LINE('',#228,#229);
#228 = CARTESIAN_POINT('',(-7.588852262806,8.280731531961,0.));
#229 = VECTOR('',#230,1.);
#230 = DIRECTION('',(-0.5,0.866025403784,0.));
#231 = ORIENTED_EDGE('',*,*,#107,.T.);
#232 = ORIENTED_EDGE('',*,*,#233,.F.);
#233 = EDGE_CURVE('',#234,#108,#236,.T.);
#234 = VERTEX_POINT('',#235);
#235 = CARTESIAN_POINT('',(-7.588852262806,-8.280731531961,0.));
#236 = LINE('',#237,#238);
#237 = CARTESIAN_POINT('',(-7.588852262806,-8.280731531961,0.));
#238 = VECTOR('',#239,1.);
#239 = DIRECTION('',(-0.5,-0.866025403784,0.));
#240 = ORIENTED_EDGE('',*,*,#241,.T.);
#241 = EDGE_CURVE('',#234,#242,#244,.T.);
#242 = VERTEX_POINT('',#243);
#243 = CARTESIAN_POINT('',(-5.389147737194,-9.550731531961,0.));
#244 = LINE('',#245,#246);
#245 = CARTESIAN_POINT('',(-7.588852262806,-8.280731531961,0.));
#246 = VECTOR('',#247,1.);
#247 = DIRECTION('',(0.866025403784,-0.5,0.));
#248 = ORIENTED_EDGE('',*,*,#249,.T.);
#249 = EDGE_CURVE('',#242,#134,#250,.T.);
#250 = LINE('',#251,#252);
#251 = CARTESIAN_POINT('',(-5.389147737194,-9.550731531961,0.));
#252 = VECTOR('',#253,1.);
#253 = DIRECTION('',(-0.5,-0.866025403784,0.));
#254 = ORIENTED_EDGE('',*,*,#141,.T.);
#255 = FACE_BOUND('',#256,.F.);
#256 = EDGE_LOOP('',(#257));
#257 = ORIENTED_EDGE('',*,*,#258,.F.);
#258 = EDGE_CURVE('',#259,#259,#261,.T.);
#259 = VERTEX_POINT('',#260);
#260 = CARTESIAN_POINT('',(5.09105,-1.575520353571E-15,0.));
#261 = CIRCLE('',#262,6.43255);
#262 = AXIS2_PLACEMENT_3D('',#263,#264,#265);
#263 = CARTESIAN_POINT('',(-1.3415,0.,0.));
#264 = DIRECTION('',(0.,0.,1.));
#265 = DIRECTION('',(1.,0.,-0.));
#266 = PLANE('',#267);
#267 = AXIS2_PLACEMENT_3D('',#268,#269,#270);
#268 = CARTESIAN_POINT('',(-1.3415,0.,0.));
#269 = DIRECTION('',(0.,0.,1.));
#270 = DIRECTION('',(1.,0.,-0.));
#271 = ADVANCED_FACE('',(#272),#297,.T.);
#272 = FACE_BOUND('',#273,.T.);
#273 = EDGE_LOOP('',(#274,#282,#283,#291));
#274 = ORIENTED_EDGE('',*,*,#275,.F.);
#275 = EDGE_CURVE('',#134,#276,#278,.T.);
#276 = VERTEX_POINT('',#277);
#277 = CARTESIAN_POINT('',(-15.62729938288,-27.28373035789,0.));
#278 = LINE('',#279,#280);
#279 = CARTESIAN_POINT('',(-5.389147737194,-9.550731531961,0.));
#280 = VECTOR('',#281,1.);
#281 = DIRECTION('',(-0.5,-0.866025403784,0.));
#282 = ORIENTED_EDGE('',*,*,#133,.T.);
#283 = ORIENTED_EDGE('',*,*,#284,.T.);
#284 = EDGE_CURVE('',#125,#285,#287,.T.);
#285 = VERTEX_POINT('',#286);
#286 = CARTESIAN_POINT('',(-15.62729938288,-27.28373035788,5.08));
#287 = LINE('',#288,#289);
#288 = CARTESIAN_POINT('',(-5.389147737194,-9.550731531961,5.08));
#289 = VECTOR('',#290,1.);
#290 = DIRECTION('',(-0.5,-0.866025403784,0.));
#291 = ORIENTED_EDGE('',*,*,#292,.F.);
#292 = EDGE_CURVE('',#276,#285,#293,.T.);
#293 = LINE('',#294,#295);
#294 = CARTESIAN_POINT('',(-15.62729938288,-27.28373035788,0.));
#295 = VECTOR('',#296,1.);
#296 = DIRECTION('',(0.,0.,1.));
#297 = PLANE('',#298);
#298 = AXIS2_PLACEMENT_3D('',#299,#300,#301);
#299 = CARTESIAN_POINT('',(-5.389147737194,-9.550731531961,0.));
#300 = DIRECTION('',(0.866025403784,-0.5,0.));
#301 = DIRECTION('',(0.,0.,1.));
#302 = ADVANCED_FACE('',(#303),#322,.T.);
#303 = FACE_BOUND('',#304,.T.);
#304 = EDGE_LOOP('',(#305,#306,#307,#315));
#305 = ORIENTED_EDGE('',*,*,#284,.F.);
#306 = ORIENTED_EDGE('',*,*,#124,.F.);
#307 = ORIENTED_EDGE('',*,*,#308,.T.);
#308 = EDGE_CURVE('',#117,#309,#311,.T.);
#309 = VERTEX_POINT('',#310);
#310 = CARTESIAN_POINT('',(-17.82700390849,-26.01373035788,5.08));
#311 = LINE('',#312,#313);
#312 = CARTESIAN_POINT('',(-7.588852262806,-8.280731531961,5.08));
#313 = VECTOR('',#314,1.);
#314 = DIRECTION('',(-0.5,-0.866025403784,0.));
#315 = ORIENTED_EDGE('',*,*,#316,.T.);
#316 = EDGE_CURVE('',#309,#285,#317,.T.);
#317 = CIRCLE('',#318,30.7975);
#318 = AXIS2_PLACEMENT_3D('',#319,#320,#321);
#319 = CARTESIAN_POINT('',(-1.3415,0.,5.08));
#320 = DIRECTION('',(0.,0.,1.));
#321 = DIRECTION('',(1.,0.,-0.));
#322 = PLANE('',#323);
#323 = AXIS2_PLACEMENT_3D('',#324,#325,#326);
#324 = CARTESIAN_POINT('',(-7.588852262806,-8.280731531961,5.08));
#325 = DIRECTION('',(0.,0.,1.));
#326 = DIRECTION('',(-0.5,-0.866025403784,0.));
#327 = ADVANCED_FACE('',(#328),#346,.F.);
#328 = FACE_BOUND('',#329,.F.);
#329 = EDGE_LOOP('',(#330,#338,#339,#340));
#330 = ORIENTED_EDGE('',*,*,#331,.F.);
#331 = EDGE_CURVE('',#108,#332,#334,.T.);
#332 = VERTEX_POINT('',#333);
#333 = CARTESIAN_POINT('',(-17.82700390849,-26.01373035789,0.));
#334 = LINE('',#335,#336);
#335 = CARTESIAN_POINT('',(-7.588852262806,-8.280731531961,0.));
#336 = VECTOR('',#337,1.);
#337 = DIRECTION('',(-0.5,-0.866025403784,0.));
#338 = ORIENTED_EDGE('',*,*,#116,.T.);
#339 = ORIENTED_EDGE('',*,*,#308,.T.);
#340 = ORIENTED_EDGE('',*,*,#341,.F.);
#341 = EDGE_CURVE('',#332,#309,#342,.T.);
#342 = LINE('',#343,#344);
#343 = CARTESIAN_POINT('',(-17.82700390849,-26.01373035788,0.));
#344 = VECTOR('',#345,1.);
#345 = DIRECTION('',(0.,0.,1.));
#346 = PLANE('',#347);
#347 = AXIS2_PLACEMENT_3D('',#348,#349,#350);
#348 = CARTESIAN_POINT('',(-7.588852262806,-8.280731531961,0.));
#349 = DIRECTION('',(0.866025403784,-0.5,0.));
#350 = DIRECTION('',(0.,0.,1.));
#351 = ADVANCED_FACE('',(#352),#377,.T.);
#352 = FACE_BOUND('',#353,.T.);
#353 = EDGE_LOOP('',(#354,#362,#363,#371));
#354 = ORIENTED_EDGE('',*,*,#355,.F.);
#355 = EDGE_CURVE('',#100,#356,#358,.T.);
#356 = VERTEX_POINT('',#357);
#357 = CARTESIAN_POINT('',(-17.82700390849,26.01373035789,0.));
#358 = LINE('',#359,#360);
#359 = CARTESIAN_POINT('',(-7.588852262806,8.280731531961,0.));
#360 = VECTOR('',#361,1.);
#361 = DIRECTION('',(-0.5,0.866025403784,0.));
#362 = ORIENTED_EDGE('',*,*,#99,.T.);
#363 = ORIENTED_EDGE('',*,*,#364,.T.);
#364 = EDGE_CURVE('',#91,#365,#367,.T.);
#365 = VERTEX_POINT('',#366);
#366 = CARTESIAN_POINT('',(-17.82700390849,26.013730357889,5.08));
#367 = LINE('',#368,#369);
#368 = CARTESIAN_POINT('',(-7.588852262806,8.280731531961,5.08));
#369 = VECTOR('',#370,1.);
#370 = DIRECTION('',(-0.5,0.866025403784,0.));
#371 = ORIENTED_EDGE('',*,*,#372,.F.);
#372 = EDGE_CURVE('',#356,#365,#373,.T.);
#373 = LINE('',#374,#375);
#374 = CARTESIAN_POINT('',(-17.82700390849,26.013730357889,0.));
#375 = VECTOR('',#376,1.);
#376 = DIRECTION('',(0.,0.,1.));
#377 = PLANE('',#378);
#378 = AXIS2_PLACEMENT_3D('',#379,#380,#381);
#379 = CARTESIAN_POINT('',(-7.588852262806,8.280731531961,0.));
#380 = DIRECTION('',(-0.866025403784,-0.5,0.));
#381 = DIRECTION('',(0.,0.,1.));
#382 = ADVANCED_FACE('',(#383),#402,.T.);
#383 = FACE_BOUND('',#384,.T.);
#384 = EDGE_LOOP('',(#385,#386,#387,#395));
#385 = ORIENTED_EDGE('',*,*,#364,.F.);
#386 = ORIENTED_EDGE('',*,*,#90,.F.);
#387 = ORIENTED_EDGE('',*,*,#388,.T.);
#388 = EDGE_CURVE('',#83,#389,#391,.T.);
#389 = VERTEX_POINT('',#390);
#390 = CARTESIAN_POINT('',(-15.62729938288,27.283730357889,5.08));
#391 = LINE('',#392,#393);
#392 = CARTESIAN_POINT('',(-5.389147737194,9.550731531961,5.08));
#393 = VECTOR('',#394,1.);
#394 = DIRECTION('',(-0.5,0.866025403784,0.));
#395 = ORIENTED_EDGE('',*,*,#396,.T.);
#396 = EDGE_CURVE('',#389,#365,#397,.T.);
#397 = CIRCLE('',#398,30.7975);
#398 = AXIS2_PLACEMENT_3D('',#399,#400,#401);
#399 = CARTESIAN_POINT('',(-1.3415,0.,5.08));
#400 = DIRECTION('',(0.,0.,1.));
#401 = DIRECTION('',(1.,0.,-0.));
#402 = PLANE('',#403);
#403 = AXIS2_PLACEMENT_3D('',#404,#405,#406);
#404 = CARTESIAN_POINT('',(-5.389147737194,9.550731531961,5.08));
#405 = DIRECTION('',(0.,0.,1.));
#406 = DIRECTION('',(-0.5,0.866025403784,0.));
#407 = ADVANCED_FACE('',(#408),#426,.F.);
#408 = FACE_BOUND('',#409,.F.);
#409 = EDGE_LOOP('',(#410,#418,#419,#420));
#410 = ORIENTED_EDGE('',*,*,#411,.F.);
#411 = EDGE_CURVE('',#74,#412,#414,.T.);
#412 = VERTEX_POINT('',#413);
#413 = CARTESIAN_POINT('',(-15.62729938288,27.28373035789,0.));
#414 = LINE('',#415,#416);
#415 = CARTESIAN_POINT('',(-5.389147737194,9.550731531961,0.));
#416 = VECTOR('',#417,1.);
#417 = DIRECTION('',(-0.5,0.866025403784,0.));
#418 = ORIENTED_EDGE('',*,*,#82,.T.);
#419 = ORIENTED_EDGE('',*,*,#388,.T.);
#420 = ORIENTED_EDGE('',*,*,#421,.F.);
#421 = EDGE_CURVE('',#412,#389,#422,.T.);
#422 = LINE('',#423,#424);
#423 = CARTESIAN_POINT('',(-15.62729938288,27.283730357889,0.));
#424 = VECTOR('',#425,1.);
#425 = DIRECTION('',(0.,0.,1.));
#426 = PLANE('',#427);
#427 = AXIS2_PLACEMENT_3D('',#428,#429,#430);
#428 = CARTESIAN_POINT('',(-5.389147737194,9.550731531961,0.));
#429 = DIRECTION('',(-0.866025403784,-0.5,0.));
#430 = DIRECTION('',(0.,0.,1.));
#431 = ADVANCED_FACE('',(#432),#457,.T.);
#432 = FACE_BOUND('',#433,.T.);
#433 = EDGE_LOOP('',(#434,#442,#443,#451));
#434 = ORIENTED_EDGE('',*,*,#435,.F.);
#435 = EDGE_CURVE('',#66,#436,#438,.T.);
#436 = VERTEX_POINT('',#437);
#437 = CARTESIAN_POINT('',(29.429803291379,1.27,0.));
#438 = LINE('',#439,#440);
#439 = CARTESIAN_POINT('',(8.9535,1.27,0.));
#440 = VECTOR('',#441,1.);
#441 = DIRECTION('',(1.,0.,0.));
#442 = ORIENTED_EDGE('',*,*,#65,.T.);
#443 = ORIENTED_EDGE('',*,*,#444,.T.);
#444 = EDGE_CURVE('',#57,#445,#447,.T.);
#445 = VERTEX_POINT('',#446);
#446 = CARTESIAN_POINT('',(29.429803291378,1.27,5.08));
#447 = LINE('',#448,#449);
#448 = CARTESIAN_POINT('',(8.9535,1.27,5.08));
#449 = VECTOR('',#450,1.);
#450 = DIRECTION('',(1.,0.,0.));
#451 = ORIENTED_EDGE('',*,*,#452,.F.);
#452 = EDGE_CURVE('',#436,#445,#453,.T.);
#453 = LINE('',#454,#455);
#454 = CARTESIAN_POINT('',(29.429803291378,1.27,0.));
#455 = VECTOR('',#456,1.);
#456 = DIRECTION('',(0.,0.,1.));
#457 = PLANE('',#458);
#458 = AXIS2_PLACEMENT_3D('',#459,#460,#461);
#459 = CARTESIAN_POINT('',(8.9535,1.27,0.));
#460 = DIRECTION('',(0.,1.,0.));
#461 = DIRECTION('',(0.,0.,1.));
#462 = ADVANCED_FACE('',(#463),#485,.T.);
#463 = FACE_BOUND('',#464,.T.);
#464 = EDGE_LOOP('',(#465,#466,#467,#468,#469,#478));
#465 = ORIENTED_EDGE('',*,*,#444,.F.);
#466 = ORIENTED_EDGE('',*,*,#56,.F.);
#467 = ORIENTED_EDGE('',*,*,#31,.F.);
#468 = ORIENTED_EDGE('',*,*,#165,.T.);
#469 = ORIENTED_EDGE('',*,*,#470,.T.);
#470 = EDGE_CURVE('',#166,#471,#473,.T.);
#471 = VERTEX_POINT('',#472);
#472 = CARTESIAN_POINT('',(29.456,-7.543211959348E-15,5.08));
#473 = CIRCLE('',#474,30.7975);
#474 = AXIS2_PLACEMENT_3D('',#475,#476,#477);
#475 = CARTESIAN_POINT('',(-1.3415,0.,5.08));
#476 = DIRECTION('',(0.,0.,1.));
#477 = DIRECTION('',(1.,0.,-0.));
#478 = ORIENTED_EDGE('',*,*,#479,.T.);
#479 = EDGE_CURVE('',#471,#445,#480,.T.);
#480 = CIRCLE('',#481,30.7975);
#481 = AXIS2_PLACEMENT_3D('',#482,#483,#484);
#482 = CARTESIAN_POINT('',(-1.3415,0.,5.08));
#483 = DIRECTION('',(0.,0.,1.));
#484 = DIRECTION('',(1.,0.,-0.));
#485 = PLANE('',#486);
#486 = AXIS2_PLACEMENT_3D('',#487,#488,#489);
#487 = CARTESIAN_POINT('',(8.9535,-1.27,5.08));
#488 = DIRECTION('',(0.,0.,1.));
#489 = DIRECTION('',(1.,0.,0.));
#490 = ADVANCED_FACE('',(#491,#494),#505,.T.);
#491 = FACE_BOUND('',#492,.T.);
#492 = EDGE_LOOP('',(#493));
#493 = ORIENTED_EDGE('',*,*,#48,.T.);
#494 = FACE_BOUND('',#495,.T.);
#495 = EDGE_LOOP('',(#496));
#496 = ORIENTED_EDGE('',*,*,#497,.F.);
#497 = EDGE_CURVE('',#498,#498,#500,.T.);
#498 = VERTEX_POINT('',#499);
#499 = CARTESIAN_POINT('',(5.09105,-1.575520353571E-15,11.43));
#500 = CIRCLE('',#501,6.43255);
#501 = AXIS2_PLACEMENT_3D('',#502,#503,#504);
#502 = CARTESIAN_POINT('',(-1.3415,0.,11.43));
#503 = DIRECTION('',(0.,0.,1.));
#504 = DIRECTION('',(1.,0.,-0.));
#505 = PLANE('',#506);
#506 = AXIS2_PLACEMENT_3D('',#507,#508,#509);
#507 = CARTESIAN_POINT('',(-1.3415,0.,11.43));
#508 = DIRECTION('',(0.,0.,1.));
#509 = DIRECTION('',(1.,0.,-0.));
#510 = ADVANCED_FACE('',(#511),#547,.F.);
#511 = FACE_BOUND('',#512,.F.);
#512 = EDGE_LOOP('',(#513,#522,#523,#532,#539,#540));
#513 = ORIENTED_EDGE('',*,*,#514,.F.);
#514 = EDGE_CURVE('',#22,#515,#517,.T.);
#515 = VERTEX_POINT('',#516);
#516 = CARTESIAN_POINT('',(9.4535,-2.644012439359E-15,0.));
#517 = CIRCLE('',#518,10.795);
#518 = AXIS2_PLACEMENT_3D('',#519,#520,#521);
#519 = CARTESIAN_POINT('',(-1.3415,0.,0.));
#520 = DIRECTION('',(0.,0.,1.));
#521 = DIRECTION('',(1.,0.,-0.));
#522 = ORIENTED_EDGE('',*,*,#156,.T.);
#523 = ORIENTED_EDGE('',*,*,#524,.T.);
#524 = EDGE_CURVE('',#157,#525,#527,.T.);
#525 = VERTEX_POINT('',#526);
#526 = CARTESIAN_POINT('',(29.456,-7.543211959348E-15,0.));
#527 = CIRCLE('',#528,30.7975);
#528 = AXIS2_PLACEMENT_3D('',#529,#530,#531);
#529 = CARTESIAN_POINT('',(-1.3415,0.,0.));
#530 = DIRECTION('',(0.,0.,1.));
#531 = DIRECTION('',(1.,0.,-0.));
#532 = ORIENTED_EDGE('',*,*,#533,.T.);
#533 = EDGE_CURVE('',#525,#436,#534,.T.);
#534 = CIRCLE('',#535,30.7975);
#535 = AXIS2_PLACEMENT_3D('',#536,#537,#538);
#536 = CARTESIAN_POINT('',(-1.3415,0.,0.));
#537 = DIRECTION('',(0.,0.,1.));
#538 = DIRECTION('',(1.,0.,-0.));
#539 = ORIENTED_EDGE('',*,*,#435,.F.);
#540 = ORIENTED_EDGE('',*,*,#541,.F.);
#541 = EDGE_CURVE('',#515,#66,#542,.T.);
#542 = CIRCLE('',#543,10.795);
#543 = AXIS2_PLACEMENT_3D('',#544,#545,#546);
#544 = CARTESIAN_POINT('',(-1.3415,0.,0.));
#545 = DIRECTION('',(0.,0.,1.));
#546 = DIRECTION('',(1.,0.,-0.));
#547 = PLANE('',#548);
#548 = AXIS2_PLACEMENT_3D('',#549,#550,#551);
#549 = CARTESIAN_POINT('',(8.9535,-1.27,0.));
#550 = DIRECTION('',(0.,0.,1.));
#551 = DIRECTION('',(1.,0.,0.));
#552 = ADVANCED_FACE('',(#553),#602,.F.);
#553 = FACE_BOUND('',#554,.F.);
#554 = EDGE_LOOP('',(#555,#556,#557,#565,#572,#573,#574,#575,#582,#583,
    #584,#585,#592,#593,#594,#595));
#555 = ORIENTED_EDGE('',*,*,#173,.T.);
#556 = ORIENTED_EDGE('',*,*,#470,.T.);
#557 = ORIENTED_EDGE('',*,*,#558,.T.);
#558 = EDGE_CURVE('',#471,#559,#561,.T.);
#559 = VERTEX_POINT('',#560);
#560 = CARTESIAN_POINT('',(29.456,-7.543211959348E-15,7.0358));
#561 = LINE('',#562,#563);
#562 = CARTESIAN_POINT('',(29.456,-7.543211959348E-15,0.));
#563 = VECTOR('',#564,1.);
#564 = DIRECTION('',(0.,0.,1.));
#565 = ORIENTED_EDGE('',*,*,#566,.F.);
#566 = EDGE_CURVE('',#559,#559,#567,.T.);
#567 = CIRCLE('',#568,30.7975);
#568 = AXIS2_PLACEMENT_3D('',#569,#570,#571);
#569 = CARTESIAN_POINT('',(-1.3415,0.,7.0358));
#570 = DIRECTION('',(0.,0.,1.));
#571 = DIRECTION('',(1.,0.,-0.));
#572 = ORIENTED_EDGE('',*,*,#558,.F.);
#573 = ORIENTED_EDGE('',*,*,#479,.T.);
#574 = ORIENTED_EDGE('',*,*,#452,.F.);
#575 = ORIENTED_EDGE('',*,*,#576,.T.);
#576 = EDGE_CURVE('',#436,#412,#577,.T.);
#577 = CIRCLE('',#578,30.7975);
#578 = AXIS2_PLACEMENT_3D('',#579,#580,#581);
#579 = CARTESIAN_POINT('',(-1.3415,0.,0.));
#580 = DIRECTION('',(0.,0.,1.));
#581 = DIRECTION('',(1.,0.,-0.));
#582 = ORIENTED_EDGE('',*,*,#421,.T.);
#583 = ORIENTED_EDGE('',*,*,#396,.T.);
#584 = ORIENTED_EDGE('',*,*,#372,.F.);
#585 = ORIENTED_EDGE('',*,*,#586,.T.);
#586 = EDGE_CURVE('',#356,#332,#587,.T.);
#587 = CIRCLE('',#588,30.7975);
#588 = AXIS2_PLACEMENT_3D('',#589,#590,#591);
#589 = CARTESIAN_POINT('',(-1.3415,0.,0.));
#590 = DIRECTION('',(0.,0.,1.));
#591 = DIRECTION('',(1.,0.,-0.));
#592 = ORIENTED_EDGE('',*,*,#341,.T.);
#593 = ORIENTED_EDGE('',*,*,#316,.T.);
#594 = ORIENTED_EDGE('',*,*,#292,.F.);
#595 = ORIENTED_EDGE('',*,*,#596,.T.);
#596 = EDGE_CURVE('',#276,#157,#597,.T.);
#597 = CIRCLE('',#598,30.7975);
#598 = AXIS2_PLACEMENT_3D('',#599,#600,#601);
#599 = CARTESIAN_POINT('',(-1.3415,0.,0.));
#600 = DIRECTION('',(0.,0.,1.));
#601 = DIRECTION('',(1.,0.,-0.));
#602 = CYLINDRICAL_SURFACE('',#603,30.7975);
#603 = AXIS2_PLACEMENT_3D('',#604,#605,#606);
#604 = CARTESIAN_POINT('',(-1.3415,0.,0.));
#605 = DIRECTION('',(0.,0.,1.));
#606 = DIRECTION('',(1.,0.,-0.));
#607 = ADVANCED_FACE('',(#608),#615,.F.);
#608 = FACE_BOUND('',#609,.F.);
#609 = EDGE_LOOP('',(#610,#611,#612,#613,#614));
#610 = ORIENTED_EDGE('',*,*,#514,.T.);
#611 = ORIENTED_EDGE('',*,*,#541,.T.);
#612 = ORIENTED_EDGE('',*,*,#203,.F.);
#613 = ORIENTED_EDGE('',*,*,#195,.F.);
#614 = ORIENTED_EDGE('',*,*,#187,.T.);
#615 = PLANE('',#616);
#616 = AXIS2_PLACEMENT_3D('',#617,#618,#619);
#617 = CARTESIAN_POINT('',(-1.3415,0.,0.));
#618 = DIRECTION('',(0.,0.,1.));
#619 = DIRECTION('',(1.,0.,-0.));
#620 = ADVANCED_FACE('',(#621),#633,.F.);
#621 = FACE_BOUND('',#622,.F.);
#622 = EDGE_LOOP('',(#623,#630,#631,#632));
#623 = ORIENTED_EDGE('',*,*,#624,.T.);
#624 = EDGE_CURVE('',#108,#134,#625,.T.);
#625 = CIRCLE('',#626,10.795);
#626 = AXIS2_PLACEMENT_3D('',#627,#628,#629);
#627 = CARTESIAN_POINT('',(-1.3415,0.,0.));
#628 = DIRECTION('',(0.,0.,1.));
#629 = DIRECTION('',(1.,0.,-0.));
#630 = ORIENTED_EDGE('',*,*,#249,.F.);
#631 = ORIENTED_EDGE('',*,*,#241,.F.);
#632 = ORIENTED_EDGE('',*,*,#233,.T.);
#633 = PLANE('',#634);
#634 = AXIS2_PLACEMENT_3D('',#635,#636,#637);
#635 = CARTESIAN_POINT('',(-1.3415,0.,0.));
#636 = DIRECTION('',(0.,0.,1.));
#637 = DIRECTION('',(1.,0.,-0.));
#638 = ADVANCED_FACE('',(#639),#651,.F.);
#639 = FACE_BOUND('',#640,.F.);
#640 = EDGE_LOOP('',(#641,#642,#649,#650));
#641 = ORIENTED_EDGE('',*,*,#210,.T.);
#642 = ORIENTED_EDGE('',*,*,#643,.T.);
#643 = EDGE_CURVE('',#74,#100,#644,.T.);
#644 = CIRCLE('',#645,10.795);
#645 = AXIS2_PLACEMENT_3D('',#646,#647,#648);
#646 = CARTESIAN_POINT('',(-1.3415,0.,0.));
#647 = DIRECTION('',(0.,0.,1.));
#648 = DIRECTION('',(1.,0.,-0.));
#649 = ORIENTED_EDGE('',*,*,#226,.F.);
#650 = ORIENTED_EDGE('',*,*,#218,.F.);
#651 = PLANE('',#652);
#652 = AXIS2_PLACEMENT_3D('',#653,#654,#655);
#653 = CARTESIAN_POINT('',(-1.3415,0.,0.));
#654 = DIRECTION('',(0.,0.,1.));
#655 = DIRECTION('',(1.,0.,-0.));
#656 = ADVANCED_FACE('',(#657),#660,.F.);
#657 = FACE_BOUND('',#658,.F.);
#658 = EDGE_LOOP('',(#659));
#659 = ORIENTED_EDGE('',*,*,#258,.T.);
#660 = PLANE('',#661);
#661 = AXIS2_PLACEMENT_3D('',#662,#663,#664);
#662 = CARTESIAN_POINT('',(-1.3415,0.,0.));
#663 = DIRECTION('',(0.,0.,1.));
#664 = DIRECTION('',(1.,0.,-0.));
#665 = ADVANCED_FACE('',(#666),#678,.F.);
#666 = FACE_BOUND('',#667,.F.);
#667 = EDGE_LOOP('',(#668,#669,#670,#677));
#668 = ORIENTED_EDGE('',*,*,#624,.F.);
#669 = ORIENTED_EDGE('',*,*,#331,.T.);
#670 = ORIENTED_EDGE('',*,*,#671,.T.);
#671 = EDGE_CURVE('',#332,#276,#672,.T.);
#672 = CIRCLE('',#673,30.7975);
#673 = AXIS2_PLACEMENT_3D('',#674,#675,#676);
#674 = CARTESIAN_POINT('',(-1.3415,0.,0.));
#675 = DIRECTION('',(0.,0.,1.));
#676 = DIRECTION('',(1.,0.,-0.));
#677 = ORIENTED_EDGE('',*,*,#275,.F.);
#678 = PLANE('',#679);
#679 = AXIS2_PLACEMENT_3D('',#680,#681,#682);
#680 = CARTESIAN_POINT('',(-7.588852262806,-8.280731531961,0.));
#681 = DIRECTION('',(0.,0.,1.));
#682 = DIRECTION('',(-0.5,-0.866025403784,0.));
#683 = ADVANCED_FACE('',(#684),#696,.F.);
#684 = FACE_BOUND('',#685,.F.);
#685 = EDGE_LOOP('',(#686,#687,#688,#695));
#686 = ORIENTED_EDGE('',*,*,#643,.F.);
#687 = ORIENTED_EDGE('',*,*,#411,.T.);
#688 = ORIENTED_EDGE('',*,*,#689,.T.);
#689 = EDGE_CURVE('',#412,#356,#690,.T.);
#690 = CIRCLE('',#691,30.7975);
#691 = AXIS2_PLACEMENT_3D('',#692,#693,#694);
#692 = CARTESIAN_POINT('',(-1.3415,0.,0.));
#693 = DIRECTION('',(0.,0.,1.));
#694 = DIRECTION('',(1.,0.,-0.));
#695 = ORIENTED_EDGE('',*,*,#355,.F.);
#696 = PLANE('',#697);
#697 = AXIS2_PLACEMENT_3D('',#698,#699,#700);
#698 = CARTESIAN_POINT('',(-5.389147737194,9.550731531961,0.));
#699 = DIRECTION('',(0.,0.,1.));
#700 = DIRECTION('',(-0.5,0.866025403784,0.));
#701 = ADVANCED_FACE('',(#702),#721,.T.);
#702 = FACE_BOUND('',#703,.T.);
#703 = EDGE_LOOP('',(#704,#712,#719,#720));
#704 = ORIENTED_EDGE('',*,*,#705,.T.);
#705 = EDGE_CURVE('',#498,#706,#708,.T.);
#706 = VERTEX_POINT('',#707);
#707 = CARTESIAN_POINT('',(5.09105,-1.575520353571E-15,77.47));
#708 = LINE('',#709,#710);
#709 = CARTESIAN_POINT('',(5.09105,-1.575520353571E-15,0.));
#710 = VECTOR('',#711,1.);
#711 = DIRECTION('',(0.,0.,1.));
#712 = ORIENTED_EDGE('',*,*,#713,.F.);
#713 = EDGE_CURVE('',#706,#706,#714,.T.);
#714 = CIRCLE('',#715,6.43255);
#715 = AXIS2_PLACEMENT_3D('',#716,#717,#718);
#716 = CARTESIAN_POINT('',(-1.3415,0.,77.47));
#717 = DIRECTION('',(0.,0.,1.));
#718 = DIRECTION('',(1.,0.,-0.));
#719 = ORIENTED_EDGE('',*,*,#705,.F.);
#720 = ORIENTED_EDGE('',*,*,#497,.T.);
#721 = CYLINDRICAL_SURFACE('',#722,6.43255);
#722 = AXIS2_PLACEMENT_3D('',#723,#724,#725);
#723 = CARTESIAN_POINT('',(-1.3415,0.,0.));
#724 = DIRECTION('',(0.,0.,1.));
#725 = DIRECTION('',(1.,0.,-0.));
#726 = ADVANCED_FACE('',(#727),#753,.F.);
#727 = FACE_BOUND('',#728,.F.);
#728 = EDGE_LOOP('',(#729,#730,#731,#739,#747));
#729 = ORIENTED_EDGE('',*,*,#533,.F.);
#730 = ORIENTED_EDGE('',*,*,#524,.F.);
#731 = ORIENTED_EDGE('',*,*,#732,.T.);
#732 = EDGE_CURVE('',#157,#733,#735,.T.);
#733 = VERTEX_POINT('',#734);
#734 = CARTESIAN_POINT('',(29.956,-1.27,0.));
#735 = LINE('',#736,#737);
#736 = CARTESIAN_POINT('',(8.9535,-1.27,0.));
#737 = VECTOR('',#738,1.);
#738 = DIRECTION('',(1.,0.,0.));
#739 = ORIENTED_EDGE('',*,*,#740,.T.);
#740 = EDGE_CURVE('',#733,#741,#743,.T.);
#741 = VERTEX_POINT('',#742);
#742 = CARTESIAN_POINT('',(29.956,1.27,0.));
#743 = LINE('',#744,#745);
#744 = CARTESIAN_POINT('',(29.956,-1.27,0.));
#745 = VECTOR('',#746,1.);
#746 = DIRECTION('',(0.,1.,0.));
#747 = ORIENTED_EDGE('',*,*,#748,.F.);
#748 = EDGE_CURVE('',#436,#741,#749,.T.);
#749 = LINE('',#750,#751);
#750 = CARTESIAN_POINT('',(8.9535,1.27,0.));
#751 = VECTOR('',#752,1.);
#752 = DIRECTION('',(1.,0.,0.));
#753 = PLANE('',#754);
#754 = AXIS2_PLACEMENT_3D('',#755,#756,#757);
#755 = CARTESIAN_POINT('',(-1.3415,0.,0.));
#756 = DIRECTION('',(0.,0.,1.));
#757 = DIRECTION('',(1.,0.,-0.));
#758 = ADVANCED_FACE('',(#759,#770),#822,.F.);
#759 = FACE_BOUND('',#760,.F.);
#760 = EDGE_LOOP('',(#761));
#761 = ORIENTED_EDGE('',*,*,#762,.T.);
#762 = EDGE_CURVE('',#763,#763,#765,.T.);
#763 = VERTEX_POINT('',#764);
#764 = CARTESIAN_POINT('',(32.9866,-8.407959557162E-15,0.));
#765 = CIRCLE('',#766,34.3281);
#766 = AXIS2_PLACEMENT_3D('',#767,#768,#769);
#767 = CARTESIAN_POINT('',(-1.3415,0.,0.));
#768 = DIRECTION('',(0.,0.,1.));
#769 = DIRECTION('',(1.,0.,-0.));
#770 = FACE_BOUND('',#771,.F.);
#771 = EDGE_LOOP('',(#772,#773,#774,#775,#776,#777,#785,#793,#799,#800,
    #808,#816));
#772 = ORIENTED_EDGE('',*,*,#576,.F.);
#773 = ORIENTED_EDGE('',*,*,#748,.T.);
#774 = ORIENTED_EDGE('',*,*,#740,.F.);
#775 = ORIENTED_EDGE('',*,*,#732,.F.);
#776 = ORIENTED_EDGE('',*,*,#596,.F.);
#777 = ORIENTED_EDGE('',*,*,#778,.T.);
#778 = EDGE_CURVE('',#276,#779,#781,.T.);
#779 = VERTEX_POINT('',#780);
#780 = CARTESIAN_POINT('',(-15.89039773719,-27.73943007494,0.));
#781 = LINE('',#782,#783);
#782 = CARTESIAN_POINT('',(-5.389147737194,-9.550731531961,0.));
#783 = VECTOR('',#784,1.);
#784 = DIRECTION('',(-0.5,-0.866025403784,0.));
#785 = ORIENTED_EDGE('',*,*,#786,.F.);
#786 = EDGE_CURVE('',#787,#779,#789,.T.);
#787 = VERTEX_POINT('',#788);
#788 = CARTESIAN_POINT('',(-18.0901022628,-26.46943007494,0.));
#789 = LINE('',#790,#791);
#790 = CARTESIAN_POINT('',(-18.0901022628,-26.46943007494,0.));
#791 = VECTOR('',#792,1.);
#792 = DIRECTION('',(0.866025403784,-0.5,0.));
#793 = ORIENTED_EDGE('',*,*,#794,.F.);
#794 = EDGE_CURVE('',#332,#787,#795,.T.);
#795 = LINE('',#796,#797);
#796 = CARTESIAN_POINT('',(-7.588852262806,-8.280731531961,0.));
#797 = VECTOR('',#798,1.);
#798 = DIRECTION('',(-0.5,-0.866025403784,0.));
#799 = ORIENTED_EDGE('',*,*,#586,.F.);
#800 = ORIENTED_EDGE('',*,*,#801,.T.);
#801 = EDGE_CURVE('',#356,#802,#804,.T.);
#802 = VERTEX_POINT('',#803);
#803 = CARTESIAN_POINT('',(-18.0901022628,26.469430074943,0.));
#804 = LINE('',#805,#806);
#805 = CARTESIAN_POINT('',(-7.588852262806,8.280731531961,0.));
#806 = VECTOR('',#807,1.);
#807 = DIRECTION('',(-0.5,0.866025403784,0.));
#808 = ORIENTED_EDGE('',*,*,#809,.F.);
#809 = EDGE_CURVE('',#810,#802,#812,.T.);
#810 = VERTEX_POINT('',#811);
#811 = CARTESIAN_POINT('',(-15.89039773719,27.739430074943,0.));
#812 = LINE('',#813,#814);
#813 = CARTESIAN_POINT('',(-15.89039773719,27.739430074943,0.));
#814 = VECTOR('',#815,1.);
#815 = DIRECTION('',(-0.866025403784,-0.5,0.));
#816 = ORIENTED_EDGE('',*,*,#817,.F.);
#817 = EDGE_CURVE('',#412,#810,#818,.T.);
#818 = LINE('',#819,#820);
#819 = CARTESIAN_POINT('',(-5.389147737194,9.550731531961,0.));
#820 = VECTOR('',#821,1.);
#821 = DIRECTION('',(-0.5,0.866025403784,0.));
#822 = PLANE('',#823);
#823 = AXIS2_PLACEMENT_3D('',#824,#825,#826);
#824 = CARTESIAN_POINT('',(-1.3415,0.,0.));
#825 = DIRECTION('',(0.,0.,1.));
#826 = DIRECTION('',(1.,0.,-0.));
#827 = ADVANCED_FACE('',(#828,#839),#842,.T.);
#828 = FACE_BOUND('',#829,.T.);
#829 = EDGE_LOOP('',(#830));
#830 = ORIENTED_EDGE('',*,*,#831,.T.);
#831 = EDGE_CURVE('',#832,#832,#834,.T.);
#832 = VERTEX_POINT('',#833);
#833 = CARTESIAN_POINT('',(32.9866,-8.407959557162E-15,7.0358));
#834 = CIRCLE('',#835,34.3281);
#835 = AXIS2_PLACEMENT_3D('',#836,#837,#838);
#836 = CARTESIAN_POINT('',(-1.3415,0.,7.0358));
#837 = DIRECTION('',(0.,0.,1.));
#838 = DIRECTION('',(1.,0.,-0.));
#839 = FACE_BOUND('',#840,.T.);
#840 = EDGE_LOOP('',(#841));
#841 = ORIENTED_EDGE('',*,*,#566,.F.);
#842 = PLANE('',#843);
#843 = AXIS2_PLACEMENT_3D('',#844,#845,#846);
#844 = CARTESIAN_POINT('',(-1.3415,0.,7.0358));
#845 = DIRECTION('',(0.,0.,1.));
#846 = DIRECTION('',(1.,0.,-0.));
#847 = ADVANCED_FACE('',(#848),#854,.F.);
#848 = FACE_BOUND('',#849,.F.);
#849 = EDGE_LOOP('',(#850,#851,#852,#853));
#850 = ORIENTED_EDGE('',*,*,#778,.F.);
#851 = ORIENTED_EDGE('',*,*,#671,.F.);
#852 = ORIENTED_EDGE('',*,*,#794,.T.);
#853 = ORIENTED_EDGE('',*,*,#786,.T.);
#854 = PLANE('',#855);
#855 = AXIS2_PLACEMENT_3D('',#856,#857,#858);
#856 = CARTESIAN_POINT('',(-1.3415,0.,0.));
#857 = DIRECTION('',(0.,0.,1.));
#858 = DIRECTION('',(1.,0.,-0.));
#859 = ADVANCED_FACE('',(#860),#866,.F.);
#860 = FACE_BOUND('',#861,.F.);
#861 = EDGE_LOOP('',(#862,#863,#864,#865));
#862 = ORIENTED_EDGE('',*,*,#689,.F.);
#863 = ORIENTED_EDGE('',*,*,#817,.T.);
#864 = ORIENTED_EDGE('',*,*,#809,.T.);
#865 = ORIENTED_EDGE('',*,*,#801,.F.);
#866 = PLANE('',#867);
#867 = AXIS2_PLACEMENT_3D('',#868,#869,#870);
#868 = CARTESIAN_POINT('',(-1.3415,0.,0.));
#869 = DIRECTION('',(0.,0.,1.));
#870 = DIRECTION('',(1.,0.,-0.));
#871 = ADVANCED_FACE('',(#872,#875),#886,.T.);
#872 = FACE_BOUND('',#873,.T.);
#873 = EDGE_LOOP('',(#874));
#874 = ORIENTED_EDGE('',*,*,#713,.T.);
#875 = FACE_BOUND('',#876,.T.);
#876 = EDGE_LOOP('',(#877));
#877 = ORIENTED_EDGE('',*,*,#878,.F.);
#878 = EDGE_CURVE('',#879,#879,#881,.T.);
#879 = VERTEX_POINT('',#880);
#880 = CARTESIAN_POINT('',(2.22085,-8.725241049885E-16,77.47));
#881 = CIRCLE('',#882,3.56235);
#882 = AXIS2_PLACEMENT_3D('',#883,#884,#885);
#883 = CARTESIAN_POINT('',(-1.3415,0.,77.47));
#884 = DIRECTION('',(0.,0.,1.));
#885 = DIRECTION('',(1.,0.,-0.));
#886 = PLANE('',#887);
#887 = AXIS2_PLACEMENT_3D('',#888,#889,#890);
#888 = CARTESIAN_POINT('',(-1.3415,0.,77.47));
#889 = DIRECTION('',(0.,0.,1.));
#890 = DIRECTION('',(1.,0.,-0.));
#891 = ADVANCED_FACE('',(#892,#972,#1029),#1086,.T.);
#892 = FACE_BOUND('',#893,.T.);
#893 = EDGE_LOOP('',(#894,#902,#933,#939,#940,#941,#970,#971));
#894 = ORIENTED_EDGE('',*,*,#895,.F.);
#895 = EDGE_CURVE('',#896,#832,#898,.T.);
#896 = VERTEX_POINT('',#897);
#897 = CARTESIAN_POINT('',(32.9866,-8.407959557162E-15,5.1054));
#898 = LINE('',#899,#900);
#899 = CARTESIAN_POINT('',(32.9866,-8.407959557162E-15,0.));
#900 = VECTOR('',#901,1.);
#901 = DIRECTION('',(0.,0.,1.));
#902 = ORIENTED_EDGE('',*,*,#903,.F.);
#903 = EDGE_CURVE('',#904,#896,#906,.T.);
#904 = VERTEX_POINT('',#905);
#905 = CARTESIAN_POINT('',(32.9866,-4.398392457946E-15,1.9304));
#906 = B_SPLINE_CURVE_WITH_KNOTS('',7,(#907,#908,#909,#910,#911,#912,
    #913,#914,#915,#916,#917,#918,#919,#920,#921,#922,#923,#924,#925,
    #926,#927,#928,#929,#930,#931,#932),.UNSPECIFIED.,.F.,.F.,(8,6,6,6,8
    ),(0.,0.257678620727,0.500047570181,0.742382573218,1.),
  .UNSPECIFIED.);
#907 = CARTESIAN_POINT('',(32.9866,-8.994043000016E-16,1.9304));
#908 = CARTESIAN_POINT('',(32.9866,0.217301758644,1.9304));
#909 = CARTESIAN_POINT('',(32.98499517393,0.429207324993,1.965102131527)
  );
#910 = CARTESIAN_POINT('',(32.981929121381,0.629224197821,2.031405996945
    ));
#911 = CARTESIAN_POINT('',(32.977826621344,0.81189791345,2.124876406192)
  );
#912 = CARTESIAN_POINT('',(32.973284539144,0.973060127452,2.239830671546
    ));
#913 = CARTESIAN_POINT('',(32.968827531931,1.110246242662,2.369464140886
    ));
#914 = CARTESIAN_POINT('',(32.961012797107,1.329422896539,2.634403203481
    ));
#915 = CARTESIAN_POINT('',(32.957518697679,1.416642583298,2.771856723725
    ));
#916 = CARTESIAN_POINT('',(32.954542406842,1.485502565483,2.915577761005
    ));
#917 = CARTESIAN_POINT('',(32.952227968884,1.536640925536,3.063537558202
    ));
#918 = CARTESIAN_POINT('',(32.9506582416,1.570547797886,3.214138328246)
  );
#919 = CARTESIAN_POINT('',(32.949873453975,1.5875,3.366020643188));
#920 = CARTESIAN_POINT('',(32.949873453975,1.5875,3.66975808445));
#921 = CARTESIAN_POINT('',(32.950658020331,1.57055256015,3.821644387802)
  );
#922 = CARTESIAN_POINT('',(32.952227782956,1.536644996982,3.972259014878
    ));
#923 = CARTESIAN_POINT('',(32.954542491681,1.485501275792,4.120230340603
    ));
#924 = CARTESIAN_POINT('',(32.95751897629,1.416636143789,4.263955111757)
  );
#925 = CARTESIAN_POINT('',(32.961013038,1.32941614031,4.401404963396));
#926 = CARTESIAN_POINT('',(32.968826883479,1.110264429543,4.666313874952
    ));
#927 = CARTESIAN_POINT('',(32.973283963889,0.97308021485,4.795956732815)
  );
#928 = CARTESIAN_POINT('',(32.977826739575,0.811901413719,4.91093000018)
  );
#929 = CARTESIAN_POINT('',(32.981929956035,0.629199962238,5.004412094946
    ));
#930 = CARTESIAN_POINT('',(32.984995833212,0.429159847795,5.070712109583
    ));
#931 = CARTESIAN_POINT('',(32.9866,0.217257177117,5.1054));
#932 = CARTESIAN_POINT('',(32.9866,1.701602260321E-15,5.1054));
#933 = ORIENTED_EDGE('',*,*,#934,.F.);
#934 = EDGE_CURVE('',#763,#904,#935,.T.);
#935 = LINE('',#936,#937);
#936 = CARTESIAN_POINT('',(32.9866,-8.407959557162E-15,0.));
#937 = VECTOR('',#938,1.);
#938 = DIRECTION('',(0.,0.,1.));
#939 = ORIENTED_EDGE('',*,*,#762,.T.);
#940 = ORIENTED_EDGE('',*,*,#934,.T.);
#941 = ORIENTED_EDGE('',*,*,#942,.F.);
#942 = EDGE_CURVE('',#896,#904,#943,.T.);
#943 = B_SPLINE_CURVE_WITH_KNOTS('',7,(#944,#945,#946,#947,#948,#949,
    #950,#951,#952,#953,#954,#955,#956,#957,#958,#959,#960,#961,#962,
    #963,#964,#965,#966,#967,#968,#969),.UNSPECIFIED.,.F.,.F.,(8,6,6,6,8
    ),(0.,0.257907317855,0.500041496265,0.742405599508,1.),
  .UNSPECIFIED.);
#944 = CARTESIAN_POINT('',(32.9866,-2.442490654175E-15,5.1054));
#945 = CARTESIAN_POINT('',(32.9866,-0.217301758644,5.1054));
#946 = CARTESIAN_POINT('',(32.98499517393,-0.429207324993,5.070697868473
    ));
#947 = CARTESIAN_POINT('',(32.981929121381,-0.62922419782,5.004394003056
    ));
#948 = CARTESIAN_POINT('',(32.977826621344,-0.811897913451,
    4.910923593808));
#949 = CARTESIAN_POINT('',(32.973284539144,-0.973060127452,
    4.795969328454));
#950 = CARTESIAN_POINT('',(32.968827531931,-1.110246242662,
    4.666335859114));
#951 = CARTESIAN_POINT('',(32.961019821595,-1.329225883592,
    4.401634944263));
#952 = CARTESIAN_POINT('',(32.957523674675,-1.416543011435,
    4.264182218212));
#953 = CARTESIAN_POINT('',(32.954541443806,-1.48552885125,4.120284412998
    ));
#954 = CARTESIAN_POINT('',(32.952224782501,-1.536709559102,
    3.972126844129));
#955 = CARTESIAN_POINT('',(32.95065653618,-1.57058467784,3.821435790253)
  );
#956 = CARTESIAN_POINT('',(32.949873453975,-1.5875,3.66961402044));
#957 = CARTESIAN_POINT('',(32.949873453975,-1.5875,3.36604191555));
#958 = CARTESIAN_POINT('',(32.950658020331,-1.57055256015,3.214155612198
    ));
#959 = CARTESIAN_POINT('',(32.952227782956,-1.536644996982,
    3.063540985123));
#960 = CARTESIAN_POINT('',(32.954542491681,-1.485501275792,
    2.915569659396));
#961 = CARTESIAN_POINT('',(32.95751897629,-1.416636143789,2.771844888243
    ));
#962 = CARTESIAN_POINT('',(32.961013038,-1.32941614031,2.634395036604));
#963 = CARTESIAN_POINT('',(32.968826040204,-1.110288080529,
    2.369514714179));
#964 = CARTESIAN_POINT('',(32.973283412612,-0.973100736687,
    2.239852907063));
#965 = CARTESIAN_POINT('',(32.977827212937,-0.81189518167,2.124854981717
    ));
#966 = CARTESIAN_POINT('',(32.981931103033,-0.62915963789,2.03136326623)
  );
#967 = CARTESIAN_POINT('',(32.984996570313,-0.429099093164,1.9650719147)
  );
#968 = CARTESIAN_POINT('',(32.9866,-0.217207135065,1.9304));
#969 = CARTESIAN_POINT('',(32.9866,-5.107025913276E-15,1.9304));
#970 = ORIENTED_EDGE('',*,*,#895,.T.);
#971 = ORIENTED_EDGE('',*,*,#831,.F.);
#972 = FACE_BOUND('',#973,.T.);
#973 = EDGE_LOOP('',(#974));
#974 = ORIENTED_EDGE('',*,*,#975,.F.);
#975 = EDGE_CURVE('',#976,#976,#978,.T.);
#976 = VERTEX_POINT('',#977);
#977 = CARTESIAN_POINT('',(-18.50555,-29.72900666365,1.9304));
#978 = B_SPLINE_CURVE_WITH_KNOTS('',7,(#979,#980,#981,#982,#983,#984,
    #985,#986,#987,#988,#989,#990,#991,#992,#993,#994,#995,#996,#997,
    #998,#999,#1000,#1001,#1002,#1003,#1004,#1005,#1006,#1007,#1008,
    #1009,#1010,#1011,#1012,#1013,#1014,#1015,#1016,#1017,#1018,#1019,
    #1020,#1021,#1022,#1023,#1024,#1025,#1026,#1027,#1028),
  .UNSPECIFIED.,.T.,.F.,(8,6,6,6,6,6,6,6,8),(0.,0.142388534147,
    0.276317221509,0.443779130624,0.590477059666,0.685742421094,
    0.790541897842,0.892080574967,1.),.UNSPECIFIED.);
#979 = CARTESIAN_POINT('',(-18.50555,-29.72900666365,1.9304));
#980 = CARTESIAN_POINT('',(-18.31736115672,-29.83765754297,1.9304));
#981 = CARTESIAN_POINT('',(-18.13304314003,-29.942220506,1.965102131527)
  );
#982 = CARTESIAN_POINT('',(-17.9582904207,-30.03957366302,2.031405996945
    ));
#983 = CARTESIAN_POINT('',(-17.79803909234,-30.12735765158,
    2.124876406192));
#984 = CARTESIAN_POINT('',(-17.65619747978,-30.20400520001,
    2.239830671546));
#985 = CARTESIAN_POINT('',(-17.53516231536,-30.26873837614,
    2.369464140886));
#986 = CARTESIAN_POINT('',(-17.34144239777,-30.3715589442,2.634403203481
    ));
#987 = CARTESIAN_POINT('',(-17.26416088362,-30.41214280871,
    2.771856723724));
#988 = CARTESIAN_POINT('',(-17.20303824432,-30.44399525633,
    2.915577761006));
#989 = CARTESIAN_POINT('',(-17.15759390643,-30.46756007429,
    3.063537558201));
#990 = CARTESIAN_POINT('',(-17.12744482997,-30.48315408676,
    3.214138328247));
#991 = CARTESIAN_POINT('',(-17.11237139848,-30.4909505418,3.366020643188
    ));
#992 = CARTESIAN_POINT('',(-17.11237139848,-30.4909505418,3.707807088224
    ));
#993 = CARTESIAN_POINT('',(-17.13593729326,-30.47876145669,
    3.897662221186));
#994 = CARTESIAN_POINT('',(-17.18305265898,-30.45439227511,
    4.085089242977));
#995 = CARTESIAN_POINT('',(-17.25431573585,-30.41738642252,
    4.267398544454));
#996 = CARTESIAN_POINT('',(-17.3506509891,-30.36697928757,4.441099163147
    ));
#997 = CARTESIAN_POINT('',(-17.47301319343,-30.3021661659,4.601386479637
    ));
#998 = CARTESIAN_POINT('',(-17.75204633766,-30.15185436814,
    4.863470939533));
#999 = CARTESIAN_POINT('',(-17.90689494819,-30.06759324512,
    4.974107108643));
#1000 = CARTESIAN_POINT('',(-18.08292444568,-29.97049792302,
    5.060618054648));
#1001 = CARTESIAN_POINT('',(-18.27347913401,-29.86351452611,
    5.114472837677));
#1002 = CARTESIAN_POINT('',(-18.46994637799,-29.75096576974,
    5.131094351735));
#1003 = CARTESIAN_POINT('',(-18.66347897218,-29.63802745184,
    5.110095503953));
#1004 = CARTESIAN_POINT('',(-18.96505255131,-29.45925825765,
    5.020088283763));
#1005 = CARTESIAN_POINT('',(-19.0802712135,-29.39020535052,4.97019661974
    ));
#1006 = CARTESIAN_POINT('',(-19.19043242417,-29.32347025033,
    4.906322707642));
#1007 = CARTESIAN_POINT('',(-19.29410702151,-29.2600301931,
    4.829215297189));
#1008 = CARTESIAN_POINT('',(-19.38998951686,-29.20083137598,
    4.739888293502));
#1009 = CARTESIAN_POINT('',(-19.47692678222,-29.14674946815,
    4.639598188086));
#1010 = CARTESIAN_POINT('',(-19.63871040579,-29.04549081087,
    4.409035484384));
#1011 = CARTESIAN_POINT('',(-19.71148783395,-28.99953953745,
    4.276748145856));
#1012 = CARTESIAN_POINT('',(-19.77102139041,-28.96167693422,
    4.134889466925));
#1013 = CARTESIAN_POINT('',(-19.81634272907,-28.93270796801,
    3.98564356661));
#1014 = CARTESIAN_POINT('',(-19.84678545442,-28.91320080621,
    3.831390980427));
#1015 = CARTESIAN_POINT('',(-19.86200205549,-28.9034505418,3.67463483485
    ));
#1016 = CARTESIAN_POINT('',(-19.86200205549,-28.9034505418,
    3.366041915551));
#1017 = CARTESIAN_POINT('',(-19.84771742523,-28.91260371612,
    3.214155612199));
#1018 = CARTESIAN_POINT('',(-19.81913749546,-28.93091695201,
    3.063540985123));
#1019 = CARTESIAN_POINT('',(-19.77600308803,-28.95849340917,
    2.915569659395));
#1020 = CARTESIAN_POINT('',(-19.71785237658,-28.99550368645,
    2.771844888242));
#1021 = CARTESIAN_POINT('',(-19.6440646687,-29.0421396344,2.634395036603
    ));
#1022 = CARTESIAN_POINT('',(-19.45820070332,-29.1584699227,2.36951471413
    ));
#1023 = CARTESIAN_POINT('',(-19.3416216647,-29.23092379234,
    2.239852907075));
#1024 = CARTESIAN_POINT('',(-19.20428545904,-29.31546161633,
    2.124854981753));
#1025 = CARTESIAN_POINT('',(-19.048083781,-29.4103834613,2.031363266239)
  );
#1026 = CARTESIAN_POINT('',(-18.87635900057,-29.51306850623,
    1.965071914681));
#1027 = CARTESIAN_POINT('',(-18.69365689679,-29.62040309615,1.9304));
#1028 = CARTESIAN_POINT('',(-18.50555,-29.72900666365,1.9304));
#1029 = FACE_BOUND('',#1030,.T.);
#1030 = EDGE_LOOP('',(#1031));
#1031 = ORIENTED_EDGE('',*,*,#1032,.F.);
#1032 = EDGE_CURVE('',#1033,#1033,#1035,.T.);
#1033 = VERTEX_POINT('',#1034);
#1034 = CARTESIAN_POINT('',(-18.50555,29.729006663653,1.9304));
#1035 = B_SPLINE_CURVE_WITH_KNOTS('',7,(#1036,#1037,#1038,#1039,#1040,
    #1041,#1042,#1043,#1044,#1045,#1046,#1047,#1048,#1049,#1050,#1051,
    #1052,#1053,#1054,#1055,#1056,#1057,#1058,#1059,#1060,#1061,#1062,
    #1063,#1064,#1065,#1066,#1067,#1068,#1069,#1070,#1071,#1072,#1073,
    #1074,#1075,#1076,#1077,#1078,#1079,#1080,#1081,#1082,#1083,#1084,
    #1085),.UNSPECIFIED.,.T.,.F.,(8,6,6,6,6,6,6,6,8),(0.,0.142388533113,
    0.276317219505,0.443779127404,0.59047705522,0.685742415943,
    0.790541891931,0.892080570648,1.),.UNSPECIFIED.);
#1036 = CARTESIAN_POINT('',(-18.50555,29.729006663653,1.9304));
#1037 = CARTESIAN_POINT('',(-18.69373884327,29.620355784331,1.9304));
#1038 = CARTESIAN_POINT('',(-18.87645203389,29.513013181011,
    1.965102131527));
#1039 = CARTESIAN_POINT('',(-19.04813870067,29.4103494652,2.031405996945
    ));
#1040 = CARTESIAN_POINT('',(-19.204287529,29.315459738134,2.124876406192
    ));
#1041 = CARTESIAN_POINT('',(-19.34158705935,29.230945072562,
    2.239830671546));
#1042 = CARTESIAN_POINT('',(-19.45816521656,29.158492133486,
    2.369464140886));
#1043 = CARTESIAN_POINT('',(-19.64407039932,29.042136047666,
    2.634403203481));
#1044 = CARTESIAN_POINT('',(-19.71785781405,28.995500225419,
    2.771856723724));
#1045 = CARTESIAN_POINT('',(-19.77600416251,28.958492690852,
    2.915577761006));
#1046 = CARTESIAN_POINT('',(-19.81913406245,28.930919148759,
    3.063537558201));
#1047 = CARTESIAN_POINT('',(-19.84771341162,28.912606288878,
    3.214138328246));
#1048 = CARTESIAN_POINT('',(-19.86200205549,28.903450541802,
    3.366020643188));
#1049 = CARTESIAN_POINT('',(-19.86200205549,28.903450541802,
    3.707807088224));
#1050 = CARTESIAN_POINT('',(-19.83966305075,28.9177646628,3.897662221187
    ));
#1051 = CARTESIAN_POINT('',(-19.79500103757,28.946383175629,
    4.085089242975));
#1052 = CARTESIAN_POINT('',(-19.7273214907,28.989595884252,
    4.267398544457));
#1053 = CARTESIAN_POINT('',(-19.63550000468,29.047821093369,
    4.441099163146));
#1054 = CARTESIAN_POINT('',(-19.51818909265,29.121383309947,
    4.601386479637));
#1055 = CARTESIAN_POINT('',(-19.24849868532,29.287877202389,
    4.863470939399));
#1056 = CARTESIAN_POINT('',(-19.09810210671,29.3798494715,4.974107108844
    ));
#1057 = CARTESIAN_POINT('',(-18.92600034239,29.483747827114,
    5.06061805461));
#1058 = CARTESIAN_POINT('',(-18.73807265904,29.595281329363,
    5.114472837559));
#1059 = CARTESIAN_POINT('',(-18.54236895489,29.709152575488,
    5.131094351853));
#1060 = CARTESIAN_POINT('',(-18.34779520508,29.820287559754,
    5.110095503901));
#1061 = CARTESIAN_POINT('',(-18.04218975211,29.992073343191,
    5.020088283763));
#1062 = CARTESIAN_POINT('',(-17.92477884924,30.057329178074,
    4.97019661974));
#1063 = CARTESIAN_POINT('',(-17.81190395181,30.119364034933,
    4.906322707642));
#1064 = CARTESIAN_POINT('',(-17.70512595197,30.177428841344,
    4.829215297189));
#1065 = CARTESIAN_POINT('',(-17.60591702479,30.230866109535,
    4.739888293502));
#1066 = CARTESIAN_POINT('',(-17.51561208605,30.279115035961,
    4.639598188086));
#1067 = CARTESIAN_POINT('',(-17.3470277047,30.368594435249,
    4.409035484367));
#1068 = CARTESIAN_POINT('',(-17.27084402052,30.408645900133,
    4.276748145871));
#1069 = CARTESIAN_POINT('',(-17.20828726602,30.441272170797,
    4.134889466944));
#1070 = CARTESIAN_POINT('',(-17.16053873603,30.466037118313,
    3.985643566597));
#1071 = CARTESIAN_POINT('',(-17.12842367569,30.482647710925,3.8313909804
    ));
#1072 = CARTESIAN_POINT('',(-17.11237139848,30.490950541802,
    3.674634834874));
#1073 = CARTESIAN_POINT('',(-17.11237139848,30.490950541802,
    3.366041912046));
#1074 = CARTESIAN_POINT('',(-17.12744059583,30.483156275874,
    3.214155620798));
#1075 = CARTESIAN_POINT('',(-17.15759028394,30.467561950889,
    3.063540978916));
#1076 = CARTESIAN_POINT('',(-17.20303941037,30.443994681396,
    2.915569656174));
#1077 = CARTESIAN_POINT('',(-17.26416659363,30.412139833464,
    2.771844895314));
#1078 = CARTESIAN_POINT('',(-17.34144837161,30.371555773478,
    2.634395033429));
#1079 = CARTESIAN_POINT('',(-17.53512533684,30.268758003207,
    2.369514714179));
#1080 = CARTESIAN_POINT('',(-17.65616174789,30.204024529026,
    2.239852907063));
#1081 = CARTESIAN_POINT('',(-17.79804175393,30.127356798029,
    2.124854981718));
#1082 = CARTESIAN_POINT('',(-17.95834732206,30.039543099216,
    2.03136326623));
#1083 = CARTESIAN_POINT('',(-18.13313756973,29.942167599392,1.9650719147
    ));
#1084 = CARTESIAN_POINT('',(-18.31744310315,29.837610231184,1.9304));
#1085 = CARTESIAN_POINT('',(-18.50555,29.729006663653,1.9304));
#1086 = CYLINDRICAL_SURFACE('',#1087,34.3281);
#1087 = AXIS2_PLACEMENT_3D('',#1088,#1089,#1090);
#1088 = CARTESIAN_POINT('',(-1.3415,0.,0.));
#1089 = DIRECTION('',(0.,0.,1.));
#1090 = DIRECTION('',(1.,0.,-0.));
#1091 = ADVANCED_FACE('',(#1092),#1111,.F.);
#1092 = FACE_BOUND('',#1093,.F.);
#1093 = EDGE_LOOP('',(#1094,#1095,#1103,#1110));
#1094 = ORIENTED_EDGE('',*,*,#878,.F.);
#1095 = ORIENTED_EDGE('',*,*,#1096,.F.);
#1096 = EDGE_CURVE('',#1097,#879,#1099,.T.);
#1097 = VERTEX_POINT('',#1098);
#1098 = CARTESIAN_POINT('',(2.22085,-8.725241049885E-16,23.241));
#1099 = LINE('',#1100,#1101);
#1100 = CARTESIAN_POINT('',(2.22085,-8.725241049885E-16,23.241));
#1101 = VECTOR('',#1102,1.);
#1102 = DIRECTION('',(0.,0.,1.));
#1103 = ORIENTED_EDGE('',*,*,#1104,.T.);
#1104 = EDGE_CURVE('',#1097,#1097,#1105,.T.);
#1105 = CIRCLE('',#1106,3.56235);
#1106 = AXIS2_PLACEMENT_3D('',#1107,#1108,#1109);
#1107 = CARTESIAN_POINT('',(-1.3415,0.,23.241));
#1108 = DIRECTION('',(0.,0.,1.));
#1109 = DIRECTION('',(1.,0.,-0.));
#1110 = ORIENTED_EDGE('',*,*,#1096,.T.);
#1111 = CYLINDRICAL_SURFACE('',#1112,3.56235);
#1112 = AXIS2_PLACEMENT_3D('',#1113,#1114,#1115);
#1113 = CARTESIAN_POINT('',(-1.3415,0.,23.241));
#1114 = DIRECTION('',(0.,0.,1.));
#1115 = DIRECTION('',(1.,0.,-0.));
#1116 = ADVANCED_FACE('',(#1117),#1137,.T.);
#1117 = FACE_BOUND('',#1118,.T.);
#1118 = EDGE_LOOP('',(#1119,#1127,#1134,#1135,#1136));
#1119 = ORIENTED_EDGE('',*,*,#1120,.T.);
#1120 = EDGE_CURVE('',#904,#1121,#1123,.T.);
#1121 = VERTEX_POINT('',#1122);
#1122 = CARTESIAN_POINT('',(35.6696,-3.888253587293E-16,1.9304));
#1123 = LINE('',#1124,#1125);
#1124 = CARTESIAN_POINT('',(31.9866,-3.888253587293E-16,1.9304));
#1125 = VECTOR('',#1126,1.);
#1126 = DIRECTION('',(1.,0.,1.110223024625E-16));
#1127 = ORIENTED_EDGE('',*,*,#1128,.F.);
#1128 = EDGE_CURVE('',#1121,#1121,#1129,.T.);
#1129 = CIRCLE('',#1130,1.5875);
#1130 = AXIS2_PLACEMENT_3D('',#1131,#1132,#1133);
#1131 = CARTESIAN_POINT('',(35.6696,0.,3.5179));
#1132 = DIRECTION('',(1.,-0.,1.110223024625E-16));
#1133 = DIRECTION('',(1.110223024625E-16,0.,-1.));
#1134 = ORIENTED_EDGE('',*,*,#1120,.F.);
#1135 = ORIENTED_EDGE('',*,*,#903,.T.);
#1136 = ORIENTED_EDGE('',*,*,#942,.T.);
#1137 = CYLINDRICAL_SURFACE('',#1138,1.5875);
#1138 = AXIS2_PLACEMENT_3D('',#1139,#1140,#1141);
#1139 = CARTESIAN_POINT('',(31.9866,0.,3.5179));
#1140 = DIRECTION('',(1.,0.,1.110223024625E-16));
#1141 = DIRECTION('',(1.110223024625E-16,0.,-1.));
#1142 = ADVANCED_FACE('',(#1143),#1162,.T.);
#1143 = FACE_BOUND('',#1144,.T.);
#1144 = EDGE_LOOP('',(#1145,#1153,#1160,#1161));
#1145 = ORIENTED_EDGE('',*,*,#1146,.T.);
#1146 = EDGE_CURVE('',#976,#1147,#1149,.T.);
#1147 = VERTEX_POINT('',#1148);
#1148 = CARTESIAN_POINT('',(-19.84705,-32.052552822,1.9304));
#1149 = LINE('',#1150,#1151);
#1150 = CARTESIAN_POINT('',(-18.00555,-28.86298125986,1.9304));
#1151 = VECTOR('',#1152,1.);
#1152 = DIRECTION('',(-0.5,-0.866025403784,1.110223024625E-16));
#1153 = ORIENTED_EDGE('',*,*,#1154,.F.);
#1154 = EDGE_CURVE('',#1147,#1147,#1155,.T.);
#1155 = CIRCLE('',#1156,1.5875);
#1156 = AXIS2_PLACEMENT_3D('',#1157,#1158,#1159);
#1157 = CARTESIAN_POINT('',(-19.84705,-32.052552822,3.5179));
#1158 = DIRECTION('',(-0.5,-0.866025403784,1.110223024625E-16));
#1159 = DIRECTION('',(-5.551115123126E-17,-9.614813431918E-17,-1.));
#1160 = ORIENTED_EDGE('',*,*,#1146,.F.);
#1161 = ORIENTED_EDGE('',*,*,#975,.T.);
#1162 = CYLINDRICAL_SURFACE('',#1163,1.5875);
#1163 = AXIS2_PLACEMENT_3D('',#1164,#1165,#1166);
#1164 = CARTESIAN_POINT('',(-18.00555,-28.86298125986,3.5179));
#1165 = DIRECTION('',(-0.5,-0.866025403784,1.110223024625E-16));
#1166 = DIRECTION('',(-5.551115123126E-17,-9.614813431918E-17,-1.));
#1167 = ADVANCED_FACE('',(#1168),#1187,.T.);
#1168 = FACE_BOUND('',#1169,.T.);
#1169 = EDGE_LOOP('',(#1170,#1178,#1185,#1186));
#1170 = ORIENTED_EDGE('',*,*,#1171,.T.);
#1171 = EDGE_CURVE('',#1033,#1172,#1174,.T.);
#1172 = VERTEX_POINT('',#1173);
#1173 = CARTESIAN_POINT('',(-19.84705,32.052552822006,1.9304));
#1174 = LINE('',#1175,#1176);
#1175 = CARTESIAN_POINT('',(-18.00555,28.862981259868,1.9304));
#1176 = VECTOR('',#1177,1.);
#1177 = DIRECTION('',(-0.5,0.866025403784,1.110223024625E-16));
#1178 = ORIENTED_EDGE('',*,*,#1179,.F.);
#1179 = EDGE_CURVE('',#1172,#1172,#1180,.T.);
#1180 = CIRCLE('',#1181,1.5875);
#1181 = AXIS2_PLACEMENT_3D('',#1182,#1183,#1184);
#1182 = CARTESIAN_POINT('',(-19.84705,32.052552822006,3.5179));
#1183 = DIRECTION('',(-0.5,0.866025403784,1.110223024625E-16));
#1184 = DIRECTION('',(-5.551115123126E-17,9.614813431918E-17,-1.));
#1185 = ORIENTED_EDGE('',*,*,#1171,.F.);
#1186 = ORIENTED_EDGE('',*,*,#1032,.T.);
#1187 = CYLINDRICAL_SURFACE('',#1188,1.5875);
#1188 = AXIS2_PLACEMENT_3D('',#1189,#1190,#1191);
#1189 = CARTESIAN_POINT('',(-18.00555,28.862981259868,3.5179));
#1190 = DIRECTION('',(-0.5,0.866025403784,1.110223024625E-16));
#1191 = DIRECTION('',(-5.551115123126E-17,9.614813431918E-17,-1.));
#1192 = ADVANCED_FACE('',(#1193),#1196,.T.);
#1193 = FACE_BOUND('',#1194,.F.);
#1194 = EDGE_LOOP('',(#1195));
#1195 = ORIENTED_EDGE('',*,*,#1104,.F.);
#1196 = PLANE('',#1197);
#1197 = AXIS2_PLACEMENT_3D('',#1198,#1199,#1200);
#1198 = CARTESIAN_POINT('',(-1.3415,0.,23.241));
#1199 = DIRECTION('',(0.,0.,1.));
#1200 = DIRECTION('',(1.,0.,-0.));
#1201 = ADVANCED_FACE('',(#1202),#1205,.T.);
#1202 = FACE_BOUND('',#1203,.T.);
#1203 = EDGE_LOOP('',(#1204));
#1204 = ORIENTED_EDGE('',*,*,#1128,.T.);
#1205 = PLANE('',#1206);
#1206 = AXIS2_PLACEMENT_3D('',#1207,#1208,#1209);
#1207 = CARTESIAN_POINT('',(35.6696,0.,3.5179));
#1208 = DIRECTION('',(1.,0.,1.110223024625E-16));
#1209 = DIRECTION('',(1.110223024625E-16,0.,-1.));
#1210 = ADVANCED_FACE('',(#1211),#1214,.T.);
#1211 = FACE_BOUND('',#1212,.T.);
#1212 = EDGE_LOOP('',(#1213));
#1213 = ORIENTED_EDGE('',*,*,#1154,.T.);
#1214 = PLANE('',#1215);
#1215 = AXIS2_PLACEMENT_3D('',#1216,#1217,#1218);
#1216 = CARTESIAN_POINT('',(-19.84705,-32.052552822,3.5179));
#1217 = DIRECTION('',(-0.5,-0.866025403784,1.110223024625E-16));
#1218 = DIRECTION('',(-5.551115123126E-17,-9.614813431918E-17,-1.));
#1219 = ADVANCED_FACE('',(#1220),#1223,.T.);
#1220 = FACE_BOUND('',#1221,.T.);
#1221 = EDGE_LOOP('',(#1222));
#1222 = ORIENTED_EDGE('',*,*,#1179,.T.);
#1223 = PLANE('',#1224);
#1224 = AXIS2_PLACEMENT_3D('',#1225,#1226,#1227);
#1225 = CARTESIAN_POINT('',(-19.84705,32.052552822006,3.5179));
#1226 = DIRECTION('',(-0.5,0.866025403784,1.110223024625E-16));
#1227 = DIRECTION('',(-5.551115123126E-17,9.614813431918E-17,-1.));
#1228 = ( GEOMETRIC_REPRESENTATION_CONTEXT(3) 
GLOBAL_UNCERTAINTY_ASSIGNED_CONTEXT((#1232)) 
GLOBAL_UNIT_ASSIGNED_CONTEXT((#1229,#1230,#1231)) REPRESENTATION_CONTEXT
('Context #1','3D Context with UNIT and UNCERTAINTY') );
#1229 = ( LENGTH_UNIT() NAMED_UNIT(*) SI_UNIT(.MILLI.,.METRE.) );
#1230 = ( NAMED_UNIT(*) PLANE_ANGLE_UNIT() SI_UNIT($,.RADIAN.) );
#1231 = ( NAMED_UNIT(*) SI_UNIT($,.STERADIAN.) SOLID_ANGLE_UNIT() );
#1232 = UNCERTAINTY_MEASURE_WITH_UNIT(LENGTH_MEASURE(1.E-07),#1229,
  'distance_accuracy_value','confusion accuracy');
#1233 = PRODUCT_RELATED_PRODUCT_CATEGORY('part',$,(#7));
ENDSEC;
END-ISO-10303-21;
